<svg width="27" height="30" viewBox="0 0 27 30" fill="none" xmlns="http://www.w3.org/2000/svg">
<path fill-rule="evenodd" clip-rule="evenodd" d="M0.5 1.5C0.5 0.947715 0.947715 0.5 1.5 0.5H25.5C26.0523 0.5 26.5 0.947715 26.5 1.5V8C26.5 8.55228 26.0523 9 25.5 9C24.9477 9 24.5 8.55228 24.5 8V2.5H14.5V27.5H18.5C19.0523 27.5 19.5 27.9477 19.5 28.5C19.5 29.0523 19.0523 29.5 18.5 29.5H13.5H8.5C7.94772 29.5 7.5 29.0523 7.5 28.5C7.5 27.9477 7.94772 27.5 8.5 27.5H12.5V2.5H2.5V8C2.5 8.55228 2.05228 9 1.5 9C0.947715 9 0.5 8.55228 0.5 8V1.5Z" fill="white"/>
</svg>
