<svg width="514" height="1178" viewBox="0 0 514 1178" fill="none" xmlns="http://www.w3.org/2000/svg">
<path fill-rule="evenodd" clip-rule="evenodd" d="M299.445 43.2067C299.445 59.7023 289.986 73.9884 276.195 80.9366L513.5 534.974C491.975 585.062 446.317 699.518 435.885 756.643C422.846 828.048 405.46 929.258 414.153 957.199H109.282C113.007 922.428 96.8634 810.663 81.3404 756.643C68.922 713.427 21.9391 590.857 0 534.974L238.126 80.874C224.403 73.9029 215 59.6529 215 43.2067C215 19.8879 233.904 0.984253 257.222 0.984253C280.541 0.984253 299.445 19.8879 299.445 43.2067ZM257.222 85.4292C261.705 85.4292 266.025 84.7306 270.079 83.4363V399.23C321.99 405.868 362.113 450.213 362.113 503.929C362.113 562.226 314.853 609.485 256.556 609.485C198.259 609.485 151 562.226 151 503.929C151 449.88 191.622 405.32 244 399.111V83.3175C248.159 84.6878 252.604 85.4292 257.222 85.4292ZM67.8012 1033.57C67.8012 1009.91 86.9828 990.729 110.645 990.729H401.235C424.897 990.729 444.078 1009.91 444.078 1033.57C444.078 1057.23 424.896 1076.42 401.235 1076.42H110.645C86.9828 1076.42 67.8012 1057.23 67.8012 1033.57ZM101.331 1139.13C101.331 1118.21 118.288 1101.25 139.207 1101.25H372.672C393.591 1101.25 410.548 1118.21 410.548 1139.13C410.548 1160.05 393.591 1177 372.672 1177H139.207C118.288 1177 101.331 1160.05 101.331 1139.13Z" fill="url(#paint0_linear_65_22)"/>
<defs>
<linearGradient id="paint0_linear_65_22" x1="336" y1="0.999997" x2="34" y2="1203" gradientUnits="userSpaceOnUse">
<stop stop-color="#019AFF"/>
<stop offset="0.987404" stop-color="#2487C8"/>
</linearGradient>
</defs>
</svg>
